<?xml version="1.0" standalone="no"?>
<!DOCTYPE svg PUBLIC "-//W3C//DTD SVG 20010904//EN"
 "http://www.w3.org/TR/2001/REC-SVG-20010904/DTD/svg10.dtd">
<svg version="1.0" xmlns="http://www.w3.org/2000/svg"
 width="64.000000pt" height="64.000000pt" viewBox="0 0 64.000000 64.000000"
 preserveAspectRatio="xMidYMid meet">
<metadata>
Created by potrace 1.16, written by Peter Selinger 2001-2019
</metadata>
<g transform="translate(0.000000,64.000000) scale(0.100000,-0.100000)"
fill="#000000" stroke="none">
<path d="M105 496 c-125 -56 -142 -274 -25 -340 44 -26 127 -27 164 -3 28 19
66 73 66 95 0 25 -26 11 -45 -26 -28 -52 -87 -73 -147 -52 -35 12 -47 24 -66
60 -40 80 -41 79 121 82 l142 3 -3 45 c-5 61 -36 108 -86 131 -48 22 -80 23
-121 5z m136 -52 c15 -14 32 -43 37 -65 l10 -39 -130 0 -130 0 6 28 c24 99
139 141 207 76z"/>
<path d="M340 494 c0 -3 27 -40 61 -84 40 -51 58 -83 53 -92 -4 -7 -34 -48
-67 -91 -32 -43 -56 -81 -53 -84 12 -13 38 10 91 82 31 41 59 73 64 71 4 -3
29 -36 57 -75 43 -63 77 -92 90 -79 2 3 -25 44 -61 91 -36 47 -65 90 -65 95 0
5 27 44 60 87 33 43 58 80 56 82 -13 13 -47 -15 -92 -77 l-51 -70 -42 60 c-23
33 -49 66 -57 75 -15 14 -44 21 -44 9z"/>
</g>
</svg>
